<svg width="14" height="14" viewBox="0 0 14 14" fill="none" xmlns="http://www.w3.org/2000/svg">
<path d="M7.54813 4.14054L4.53856 7.16369C4.25246 7.4536 4.09526 7.84981 4.10155 8.26616C4.11012 8.68735 4.27942 9.08833 4.57314 9.38313C4.86789 9.6819 5.26482 9.85343 5.67589 9.86068C5.87713 9.86502 6.07718 9.82807 6.26427 9.752C6.45136 9.67594 6.6217 9.56229 6.76528 9.41776L9.77406 6.39461C10.0579 6.1069 10.2818 5.7631 10.432 5.38407C10.5822 5.00504 10.6558 4.59868 10.6481 4.18966C10.6316 3.34724 10.2935 2.54498 9.70647 1.95491C9.11779 1.35806 8.32744 1.01633 7.4994 1.00062C7.09736 0.992396 6.69775 1.06636 6.32392 1.21818C5.9501 1.37 5.60955 1.59664 5.32219 1.88485L2.31105 4.90881C1.8856 5.34058 1.5501 5.85634 1.32488 6.42485C1.09967 6.99336 0.989414 7.60279 1.0008 8.21623C1.02611 9.47956 1.53343 10.6825 2.41402 11.5671C3.29658 12.4622 4.48148 12.9749 5.72305 12.999C6.32635 13.0119 6.92609 12.9013 7.48714 12.6736C8.04819 12.446 8.55927 12.106 8.99043 11.6734L12 8.64868" stroke="white" stroke-linecap="round" stroke-linejoin="round"/>
</svg>
