<svg width="20" height="20" viewBox="0 0 20 20" fill="none" xmlns="http://www.w3.org/2000/svg">
<path d="M2.74471 11.7082C2.66415 11.9322 2.50101 12.1154 2.28996 12.2189C2.07891 12.3224 1.83658 12.3379 1.61445 12.2622C1.39232 12.1866 1.20791 12.0256 1.1004 11.8137C0.992888 11.6017 0.970748 11.3553 1.03868 11.127C1.07164 11.0264 1.10887 10.9255 1.15026 10.8282C1.22224 10.654 1.32842 10.4138 1.47419 10.1297C1.77112 9.56133 2.23362 8.80417 2.91567 8.047C4.29236 6.51617 6.54726 5 9.9899 5C13.4325 5 15.6874 6.51617 17.0641 8.047C17.7984 8.86872 18.3943 9.80844 18.8277 10.8282L18.9105 11.0353C18.9159 11.05 18.9339 11.1453 18.9519 11.237L18.9879 11.4167C18.9879 11.4167 19.1391 12.0272 18.3724 12.2857C18.1467 12.3625 17.9002 12.345 17.6871 12.2371C17.4739 12.1292 17.3114 11.9397 17.2351 11.71V11.7045L17.2243 11.6752L17.1685 11.5322C16.815 10.7085 16.3317 9.94931 15.7378 9.2845C14.6401 8.069 12.8459 6.83333 9.9899 6.83333C7.13393 6.83333 5.33973 8.06717 4.24197 9.28633C3.64823 9.95059 3.16497 10.7092 2.81129 11.5322L2.7573 11.6752L2.74471 11.7082ZM6.3907 12.3333C6.3907 11.3609 6.7699 10.4282 7.44488 9.74061C8.11986 9.05298 9.03533 8.66667 9.9899 8.66667C10.9445 8.66667 11.8599 9.05298 12.5349 9.74061C13.2099 10.4282 13.5891 11.3609 13.5891 12.3333C13.5891 13.3058 13.2099 14.2384 12.5349 14.9261C11.8599 15.6137 10.9445 16 9.9899 16C9.03533 16 8.11986 15.6137 7.44488 14.9261C6.7699 14.2384 6.3907 13.3058 6.3907 12.3333Z" fill="#262626"/>
</svg>
