<svg width="36" height="36" viewBox="0 0 36 36" fill="none" xmlns="http://www.w3.org/2000/svg">
<path d="M23 9.58824H26V31H8V9.58824H11V8.05882C11 7.24757 11.3161 6.46955 11.8787 5.89591C12.4413 5.32227 13.2044 5 14 5H20C20.7956 5 21.5587 5.32227 22.1213 5.89591C22.6839 6.46955 23 7.24757 23 8.05882V9.58824ZM27.5 9.58824H29C29.7956 9.58824 30.5587 9.9105 31.1213 10.4841C31.6839 11.0578 32 11.8358 32 12.6471V27.9412C32 28.7524 31.6839 29.5305 31.1213 30.1041C30.5587 30.6777 29.7956 31 29 31H27.5V9.58824ZM6.5 9.58824V31H5C4.20435 31 3.44129 30.6777 2.87868 30.1041C2.31607 29.5305 2 28.7524 2 27.9412V12.6471C2 10.9647 3.35 9.58824 5 9.58824H6.5ZM14 8.05882V9.58824H20V8.05882H14Z" fill="#98DA00"/>
</svg>
