<svg width="24" height="24" viewBox="0 0 24 24" fill="none" xmlns="http://www.w3.org/2000/svg">
<path d="M10 3H14C14.55 3 15 2.55 15 2C15 1.45 14.55 1 14 1H10C9.45003 1 9.00003 1.45 9.00003 2C9.00003 2.55 9.45003 3 10 3ZM19.03 7.39L19.78 6.64C19.9649 6.45395 20.0687 6.2023 20.0687 5.94C20.0687 5.6777 19.9649 5.42605 19.78 5.24L19.77 5.23C19.584 5.04509 19.3323 4.94131 19.07 4.94131C18.8077 4.94131 18.5561 5.04509 18.37 5.23L17.62 5.98C16.0274 4.69818 14.0444 3.99953 12 4C7.20003 4 3.12003 7.96 3.00003 12.76C2.96796 13.9619 3.17706 15.1581 3.61498 16.2779C4.05289 17.3977 4.71075 18.4184 5.54969 19.2797C6.38863 20.141 7.39165 20.8255 8.49952 21.2927C9.6074 21.7599 10.7977 22.0004 12 22C13.6943 22.0009 15.3544 21.5232 16.7892 20.622C18.2239 19.7207 19.3748 18.4325 20.1095 16.9057C20.8441 15.379 21.1325 13.6758 20.9416 11.9923C20.7506 10.3087 20.088 8.71341 19.03 7.39ZM13 13C13 13.55 12.55 14 12 14C11.45 14 11 13.55 11 13V9C11 8.45 11.45 8 12 8C12.55 8 13 8.45 13 9V13Z" fill="#98DA00"/>
</svg>
