<svg width="14" height="14" viewBox="0 0 14 14" fill="none" xmlns="http://www.w3.org/2000/svg">
<path d="M11.6666 5.25L10.5028 11.8685C10.4554 12.1388 10.3141 12.3837 10.1039 12.5602C9.89376 12.7366 9.6281 12.8334 9.35367 12.8333H4.64617C4.37173 12.8334 4.10608 12.7366 3.8959 12.5602C3.68572 12.3837 3.54448 12.1388 3.497 11.8685L2.33325 5.25" fill="#EE5050"/>
<path d="M12.25 3.49996H8.96875M8.96875 3.49996V2.33329C8.96875 2.02387 8.84583 1.72713 8.62704 1.50833C8.40825 1.28954 8.1115 1.16663 7.80208 1.16663H6.19792C5.8885 1.16663 5.59175 1.28954 5.37296 1.50833C5.15417 1.72713 5.03125 2.02387 5.03125 2.33329V3.49996M8.96875 3.49996H5.03125M1.75 3.49996H5.03125M11.6667 5.24996L10.5029 11.8685C10.4554 12.1388 10.3142 12.3837 10.104 12.5601C9.89384 12.7366 9.62818 12.8333 9.35375 12.8333H4.64625C4.37182 12.8333 4.10616 12.7366 3.89598 12.5601C3.6858 12.3837 3.54456 12.1388 3.49708 11.8685L2.33333 5.24996H11.6667Z" stroke="#EE5050" stroke-width="1.5" stroke-linecap="round" stroke-linejoin="round"/>
</svg>
