<svg width="16" height="16" viewBox="0 0 16 16" fill="none" xmlns="http://www.w3.org/2000/svg">
<path d="M8.47531 11.142C8.60287 11.014 8.66665 10.8555 8.66665 10.6667V7.99999C8.66665 7.81111 8.60265 7.65288 8.47465 7.52533C8.34665 7.39777 8.18843 7.33377 7.99998 7.33333C7.81154 7.33288 7.65331 7.39688 7.52531 7.52533C7.39731 7.65377 7.33331 7.81199 7.33331 7.99999V10.6667C7.33331 10.8555 7.39731 11.014 7.52531 11.142C7.65331 11.27 7.81154 11.3338 7.99998 11.3333C8.18843 11.3329 8.34687 11.2695 8.47531 11.142ZM8.47531 5.80799C8.60287 5.68044 8.66665 5.52222 8.66665 5.33333C8.66665 5.14444 8.60265 4.98622 8.47465 4.85866C8.34665 4.73111 8.18843 4.66711 7.99998 4.66666C7.81154 4.66622 7.65331 4.73022 7.52531 4.85866C7.39731 4.98711 7.33331 5.14533 7.33331 5.33333C7.33331 5.52133 7.39731 5.67977 7.52531 5.80866C7.65331 5.93755 7.81154 6.00133 7.99998 5.99999C8.18843 5.99866 8.34687 5.93466 8.47531 5.80799ZM7.99998 14.6667C7.07776 14.6667 6.21109 14.4915 5.39998 14.1413C4.58887 13.7911 3.88331 13.3162 3.28331 12.7167C2.68331 12.1171 2.20843 11.4115 1.85865 10.6C1.50887 9.78844 1.33376 8.92177 1.33331 7.99999C1.33287 7.07822 1.50798 6.21155 1.85865 5.39999C2.20931 4.58844 2.6842 3.88288 3.28331 3.28333C3.88243 2.68377 4.58798 2.20888 5.39998 1.85866C6.21198 1.50844 7.07865 1.33333 7.99998 1.33333C8.92131 1.33333 9.78798 1.50844 10.6 1.85866C11.412 2.20888 12.1175 2.68377 12.7166 3.28333C13.3158 3.88288 13.7909 4.58844 14.142 5.39999C14.4931 6.21155 14.668 7.07822 14.6666 7.99999C14.6653 8.92177 14.4902 9.78844 14.1413 10.6C13.7924 11.4115 13.3175 12.1171 12.7166 12.7167C12.1158 13.3162 11.4102 13.7913 10.6 14.142C9.78976 14.4927 8.92309 14.6676 7.99998 14.6667Z" fill="#626262"/>
</svg>
