<svg width="36" height="36" viewBox="0 0 36 36" fill="none" xmlns="http://www.w3.org/2000/svg">
<path d="M9 30C8.175 30 7.469 29.7065 6.882 29.1195C6.295 28.5325 6.001 27.826 6 27V24C6 23.575 6.144 23.219 6.432 22.932C6.72 22.645 7.076 22.501 7.5 22.5C7.924 22.499 8.2805 22.643 8.5695 22.932C8.8585 23.221 9.002 23.577 9 24V27H27V24C27 23.575 27.144 23.219 27.432 22.932C27.72 22.645 28.076 22.501 28.5 22.5C28.924 22.499 29.2805 22.643 29.5695 22.932C29.8585 23.221 30.002 23.577 30 24V27C30 27.825 29.7065 28.5315 29.1195 29.1195C28.5325 29.7075 27.826 30.001 27 30H9ZM16.5 11.775L13.6875 14.5875C13.3875 14.8875 13.0315 15.0315 12.6195 15.0195C12.2075 15.0075 11.851 14.851 11.55 14.55C11.275 14.25 11.131 13.9 11.118 13.5C11.105 13.1 11.249 12.75 11.55 12.45L16.95 7.04997C17.1 6.89997 17.2625 6.79397 17.4375 6.73197C17.6125 6.66997 17.8 6.63847 18 6.63747C18.2 6.63647 18.3875 6.66797 18.5625 6.73197C18.7375 6.79597 18.9 6.90197 19.05 7.04997L24.45 12.45C24.75 12.75 24.894 13.1 24.882 13.5C24.87 13.9 24.726 14.25 24.45 14.55C24.15 14.85 23.794 15.0065 23.382 15.0195C22.97 15.0325 22.6135 14.8885 22.3125 14.5875L19.5 11.775V22.5C19.5 22.925 19.356 23.2815 19.068 23.5695C18.78 23.8575 18.424 24.001 18 24C17.576 23.999 17.22 23.855 16.932 23.568C16.644 23.281 16.5 22.925 16.5 22.5V11.775Z" fill="#98DA00"/>
</svg>
