<svg width="36" height="36" viewBox="0 0 36 36" fill="none" xmlns="http://www.w3.org/2000/svg">
<path d="M6.86125 19.85V24.065C6.86125 25.16 7.46125 26.18 8.42125 26.705L15.9213 30.8C16.8213 31.295 17.9013 31.295 18.8013 30.8L26.3012 26.705C27.2612 26.18 27.8612 25.16 27.8612 24.065V19.85L18.8013 24.8C17.9013 25.295 16.8213 25.295 15.9213 24.8L6.86125 19.85ZM15.9213 5.36L3.27625 12.26C2.24125 12.83 2.24125 14.33 3.27625 14.9L15.9213 21.8C16.8213 22.295 17.9013 22.295 18.8013 21.8L30.8612 15.215V24.08C30.8612 24.905 31.5362 25.58 32.3612 25.58C33.1862 25.58 33.8612 24.905 33.8612 24.08V14.465C33.8612 13.91 33.5612 13.415 33.0812 13.145L18.8013 5.36C18.3581 5.12364 17.8635 5 17.3613 5C16.859 5 16.3644 5.12364 15.9213 5.36Z" fill="#98DA00"/>
</svg>
