<svg width="14" height="14" viewBox="0 0 14 14" fill="none" xmlns="http://www.w3.org/2000/svg">
<g clip-path="url(#clip0_517_1370)">
<path d="M13.2482 3.55163C13.7294 4.03317 13.9998 4.68601 14 5.36678V11.4331C14 12.1139 13.7295 12.7669 13.2481 13.2483C12.7668 13.7297 12.1139 14.0001 11.4331 14.0001H5.36684C4.68605 14.0001 4.03315 13.7297 3.55176 13.2483C3.07037 12.7669 2.79993 12.1139 2.79993 11.4331V5.36678C2.79993 5.34204 2.80109 5.31824 2.80343 5.29537C2.82077 4.62722 3.09853 3.9923 3.57744 3.52607C4.05634 3.05984 4.69847 2.79922 5.36684 2.79981H11.4331C12.1142 2.79981 12.7666 3.07001 13.2482 3.55163Z" fill="#262626"/>
<path d="M10.7618 1.05983C10.8065 1.14017 10.8349 1.22853 10.8455 1.31986C10.856 1.41118 10.8484 1.50369 10.8232 1.59209C10.798 1.6805 10.7556 1.76307 10.6985 1.83509C10.6413 1.90711 10.5706 1.96718 10.4902 2.01186C10.4099 2.05653 10.3215 2.08495 10.2302 2.09548C10.1389 2.10601 10.0464 2.09844 9.95799 2.07322C9.86959 2.048 9.78702 2.00561 9.715 1.94848C9.64298 1.89135 9.58292 1.82059 9.53824 1.74025C9.38354 1.46164 9.29884 1.40004 9.10004 1.40004H2.10001C1.71641 1.40004 1.40001 1.71645 1.40001 2.10006V9.09885C1.40001 9.35086 1.53581 9.58326 1.75491 9.70787C1.83479 9.75337 1.90493 9.81416 1.96132 9.88677C2.01771 9.95939 2.05924 10.0424 2.08355 10.1311C2.10787 10.2197 2.11447 10.3123 2.10301 10.4035C2.09154 10.4947 2.06221 10.5828 2.01671 10.6627C1.97121 10.7426 1.91041 10.8127 1.8378 10.8691C1.76519 10.9255 1.68219 10.967 1.59353 10.9913C1.50487 11.0157 1.41228 11.0223 1.32107 11.0108C1.22985 10.9993 1.14179 10.97 1.0619 10.9245C0.739632 10.7412 0.47162 10.4759 0.285106 10.1555C0.0985922 9.83508 0.000224618 9.471 0 9.10025V2.10006C0 0.943626 0.943604 0 2.10001 0H9.10004C9.86584 0 10.3796 0.37311 10.7618 1.05983Z" fill="#262626"/>
</g>
<defs>
<clipPath id="clip0_517_1370">
<rect width="14" height="14" fill="white"/>
</clipPath>
</defs>
</svg>
